<?xml version="1.0"?>
<svg xmlns="http://www.w3.org/2000/svg" xmlns:xlink="http://www.w3.org/1999/xlink" xmlns:svgjs="http://svgjs.com/svgjs" version="1.1" width="512" height="512" x="0" y="0" viewBox="0 0 512 512" style="enable-background:new 0 0 512 512" xml:space="preserve" class=""><g><g xmlns="http://www.w3.org/2000/svg"><g><path d="m351.593 136.426v-103.523c0-18.142-14.754-32.903-32.889-32.903h-69.744c-5.523 0-10 4.478-10 10s4.477 10 10 10h69.744c7.107 0 12.889 5.788 12.889 12.903v177.984c0 7.115-5.782 12.903-12.889 12.903h-31.982c-4.585 0-8.583 3.118-9.699 7.565l-9.838 39.188-33.577-42.916c-1.896-2.423-4.8-3.838-7.876-3.838h-186.343c-7.107 0-12.889-5.788-12.889-12.903v-177.983c0-7.115 5.782-12.903 12.889-12.903h119.828c5.523 0 10-4.478 10-10s-4.477-10-10-10h-119.828c-18.135 0-32.889 14.761-32.889 32.903v177.984c0 18.143 14.754 32.903 32.889 32.903h155.732c-3.745 10.859-6.311 22.11-7.651 33.606-.237 2.044-.342 3.554-.427 4.768-.181 2.592-.185 2.642-1.68 5.648l-31.557 63.407c-2.209 4.438-6.322 12.696-1.784 20.026 4.432 7.158 13.462 7.158 16.43 7.158h17.479c.171 0 .339 0 .505-.001.376 16.447 2.723 30.686 5.194 45.686.699 4.241 1.421 8.628 2.124 13.198 2.432 15.684 13.963 26.638 28.041 26.638h56.458c.231 1.195.542 2.578 1.006 4.071l9.849 32.115c3.345 11.033 11.812 11.89 14.328 11.89h113.737c8.154 0 14.788-6.635 14.788-14.79v-66.758c21.29-13.665 39.165-32.303 51.918-54.196 14.145-24.28 21.621-52.049 21.621-80.303 0-86.135-68.536-156.544-153.907-159.527zm65.275 279.839c-3.042 1.8-4.907 5.072-4.907 8.606v67.129h-104.423l-9.169-29.898c-.341-1.098-.529-2.194-.729-3.355-.761-4.435-2.544-14.82-17.944-14.82h-57.902c-4.999 0-7.583-5.227-8.275-9.688-.716-4.664-1.448-9.104-2.155-13.399-2.672-16.22-4.98-30.229-4.98-47.019 0-3.657 0-8.209-3.715-11.866-3.786-3.729-8.346-3.656-13.172-3.582-1.019.016-2.199.034-3.565.034h-13.36l30.698-61.683c2.957-5.942 3.406-8.575 3.726-13.165.074-1.063.158-2.269.341-3.851 1.444-12.378 4.522-24.428 9.139-35.916h4.384l43.172 55.179c1.918 2.452 4.838 3.839 7.875 3.838.689 0 1.384-.071 2.075-.218 3.736-.792 6.694-3.644 7.625-7.348l12.916-51.451h24.183c18.135 0 32.889-14.761 32.889-32.903v-54.449c74.341 2.972 133.907 64.408 133.907 139.514-.002 49.159-26.3 95.26-68.634 120.311z" fill="#ffffff" data-original="#000000" style="" class=""/><path d="m71.881 183.414h83.228c5.523 0 10-4.478 10-10s-4.477-10-10-10h-83.228c-5.523 0-10 4.478-10 10s4.477 10 10 10z" fill="#ffffff" data-original="#000000" style="" class=""/><path d="m71.881 131.909h35.523c5.523 0 10-4.478 10-10s-4.477-10-10-10h-35.523c-5.523 0-10 4.478-10 10s4.477 10 10 10z" fill="#ffffff" data-original="#000000" style="" class=""/><path d="m206.327 60.377h-134.446c-5.523 0-10 4.478-10 10s4.477 10 10 10h134.445c5.523 0 10-4.478 10-10s-4.476-10-9.999-10z" fill="#ffffff" data-original="#000000" style="" class=""/><path d="m286.212 80.377c5.523 0 10-4.478 10-10s-4.477-10-10-10h-29.915c-5.523 0-10 4.478-10 10s4.477 10 10 10z" fill="#ffffff" data-original="#000000" style="" class=""/><path d="m286.212 163.414h-81.132c-5.523 0-10 4.478-10 10s4.477 10 10 10h81.132c5.523 0 10-4.478 10-10s-4.477-10-10-10z" fill="#ffffff" data-original="#000000" style="" class=""/><path d="m147.375 121.909c0 5.522 4.477 10 10 10h128.836c5.523 0 10-4.478 10-10s-4.477-10-10-10h-128.836c-5.522 0-10 4.478-10 10z" fill="#ffffff" data-original="#000000" style="" class=""/><path d="m81.554 341.289c-3.909-3.901-10.24-3.897-14.142.01-41.836 41.893-41.836 110.058 0 151.95 1.953 1.956 4.514 2.934 7.076 2.934 2.557 0 5.114-.975 7.066-2.924 3.908-3.903 3.912-10.234.009-14.143-34.054-34.1-34.054-89.585 0-123.685 3.903-3.908 3.899-10.239-.009-14.142z" fill="#ffffff" data-original="#000000" style="" class=""/><path d="m123.51 368.674c-3.906-3.903-10.238-3.9-14.142.004-26.779 26.796-26.779 70.396 0 97.192 1.953 1.954 4.513 2.931 7.073 2.931 2.558 0 5.117-.976 7.069-2.927 3.906-3.904 3.909-10.235.004-14.143-18.988-19-18.988-49.915 0-68.915 3.905-3.907 3.903-10.238-.004-14.142z" fill="#ffffff" data-original="#000000" style="" class=""/><path d="m204.089 20c5.523 0 10-4.478 10-10s-4.477-10-10-10h-.028c-5.523 0-9.986 4.478-9.986 10s4.491 10 10.014 10z" fill="#ffffff" data-original="#000000" style="" class=""/></g></g></g></svg>
