<svg id="Capa_1" enable-background="new 0 0 512 512" height="512" viewBox="0 0 512 512" width="512" xmlns="http://www.w3.org/2000/svg"><g><path d="m512 256c0 114.304-74.901 211.104-178.304 244h-.011l-.928-.597c-8.672-5.482-20.192-2.069-24.48 7.253-16.874 3.499-34.357 5.344-52.277 5.344h-.053l-.64-.619c-7.04-6.837-18.133-7.147-25.547-.715-17.408-1.771-34.283-5.28-50.475-10.368-4.096-8.896-14.421-13.067-23.541-9.504l-1.013.395c-91.019-39.242-154.731-129.77-154.731-235.189 0-141.387 114.613-256 256-256s256 114.613 256 256z" fill="#654baa"/><g><g><path d="m512 256c0 65.237-24.405 124.779-64.576 169.984-13.472 15.168-28.725 28.715-45.419 40.331-20.747 14.421-43.723 25.856-68.309 33.685l-.939-.597c-8.672-5.482-20.192-2.069-24.48 7.253-16.874 3.499-34.357 5.344-52.277 5.344h-.053l-.64-.619c-7.04-6.837-18.133-7.147-25.547-.715-17.397-1.771-34.283-5.291-50.475-10.368-4.096-8.896-14.421-13.067-23.541-9.504l-1.013.395c-15.797-6.816-30.773-15.168-44.736-24.875-16.693-11.616-31.947-25.163-45.419-40.331-40.171-45.204-64.576-104.746-64.576-169.983 0-46.219 12.245-89.568 33.675-126.997 44.128 77.066 127.168 129.002 222.325 129.002s178.208-51.936 222.325-129.003c21.43 37.43 33.675 80.779 33.675 126.998z" fill="#513390"/></g></g><g><g><path d="m252.779 392.075-61.984 75.189-11.509 33.035c-8.384-2.624-16.576-5.675-24.555-9.109l12.875-36.971 64.971-78.805z" fill="#fff"/><path d="m252.779 392.075-61.984 75.189-11.509 33.035c-4.181-1.312-8.309-2.72-12.395-4.245l12.299-35.328 63.477-76.981z" fill="#eee"/><path d="m333.696 500c-8.299 2.635-16.779 4.864-25.419 6.656l-13.728-39.392-61.973-75.189 20.203-16.661 64.981 78.805z" fill="#fff"/><path d="m333.696 500c-4.149 1.323-8.352 2.539-12.597 3.648l-14.944-42.923-63.488-76.981 10.112-8.331 64.981 78.805z" fill="#eee"/><g><path d="m183.811 283.446-70.371 30.624c-14.56 6.336-31.56-.357-37.896-14.917l-12.476-28.67 31.699-13.795 10.174 23.378 65.077-28.32z" fill="#fdd425"/><path d="m183.811 283.446-70.371 30.624c-14.56 6.336-31.56-.357-37.896-14.917l-12.476-28.67 15.849-6.897 12.476 28.67c2.538 5.832 9.321 8.501 15.149 5.965l70.372-30.624z" fill="#feb123"/><g><g><path d="m216.904 294.807-59.225 25.503c-4.802 2.068-10.373-.139-12.459-4.933l-24.277-55.787c-2.086-4.794.096-10.371 4.883-12.476l59.027-25.957z" fill="#00b9ff"/><path d="m216.904 294.807-59.225 25.503c-4.802 2.068-10.373-.139-12.459-4.933l-12.436-28.576 67.796-29.504z" fill="#0092ff"/></g><g><path d="m369.931 246.674-106.402 40.224-61.905 23.402c-2.946 1.114-6.248-.28-7.504-3.168l-33.832-77.743c-1.249-2.871-.041-6.218 2.754-7.63l59.146-29.861 101.587-51.29z" fill="#fff"/><path d="m369.931 246.674-168.307 63.626c-2.946 1.114-6.248-.28-7.505-3.168l-17.205-39.535 169.939-73.954z" fill="#eee"/><path d="m369.931 246.674-168.307 63.626c-2.946 1.114-6.248-.28-7.505-3.168l-6.539-15.026 98.315-37.515 74.647-29.494z" fill="#dddddf"/><path d="m369.931 246.674-106.402 40.224-41.342-95 101.587-51.29z" fill="#eee"/><path d="m369.931 246.674-106.402 40.224-20.853-47.919 104.177-45.336z" fill="#dddddf"/><path d="m369.931 246.674-106.402 40.224-8.873-20.388 31.239-11.919 74.647-29.494z" fill="#c8c6cb"/><path d="m465.02 224.419-72.544 25.829-89.784 31.964c-2.329.829-4.902-.287-5.888-2.553l-46.426-106.681c-.981-2.255-.06-4.884 2.109-6.033l84.297-44.67 68.083-36.08z" fill="#fff"/><path d="m465.02 224.419-162.326 57.794c-2.33.829-4.904-.287-5.89-2.554l-23.503-54.007 161.643-70.343z" fill="#eee"/><path d="m465.02 224.419-162.326 57.794c-2.33.829-4.904-.287-5.89-2.554l-10.909-25.067 164.048-64.818z" fill="#dddddf"/></g><path d="m465.02 224.419-72.545 25.828-55.691-127.974 68.083-36.08z" fill="#eee"/><path d="m465.02 224.419-72.545 25.828-27.975-64.284 70.444-30.655z" fill="#dddddf"/><path d="m465.02 224.419-72.545 25.828-14.025-32.228 71.493-28.246z" fill="#c8c6cb"/><path d="m474.035 237.988-21.292 9.266c-8.163 3.552-17.659-.185-21.21-8.344l-60.092-138.085c-3.552-8.162.185-17.659 8.348-21.211l21.292-9.266c8.162-3.552 17.659.185 21.211 8.348l60.092 138.085c3.551 8.158-.186 17.655-8.349 21.207z" fill="#00b9ff"/><path d="m474.035 237.988-21.292 9.266c-8.163 3.552-17.659-.185-21.21-8.344l-30.046-69.043 50.852-22.13 30.046 69.043c3.55 8.159-.187 17.656-8.35 21.208z" fill="#0092ff"/><path d="m474.035 237.988-21.292 9.266c-8.163 3.552-17.659-.185-21.21-8.344l-14.062-32.313c1.707 3.923 9.708 4.224 17.871.672l21.292-9.266c8.163-3.552 13.396-9.613 11.688-13.535l14.062 32.313c3.551 8.158-.186 17.655-8.349 21.207z" fill="#0076ff"/></g><path d="m51.189 275.653c-2.456-5.644.128-12.21 5.772-14.667l34.42-14.979c5.644-2.456 12.21.128 14.666 5.772 2.456 5.644-.128 12.21-5.772 14.667l-34.42 14.979c-5.644 2.456-12.21-.128-14.666-5.772z" fill="#feb123"/></g><path d="m255.947 278.869v233.131c-4.395 0-8.757-.117-13.088-.331-4.395-.224-8.768-.555-13.099-1.003v-231.797z" fill="#fff"/><path d="m255.947 278.869v233.131c-4.395 0-8.757-.117-13.088-.331v-232.8z" fill="#eee"/><g><path d="m259.243 293.022v48.151c0 4.509-3.649 8.158-8.158 8.158h-16.535c-4.5 0-8.158-3.649-8.158-8.158v-48.151z" fill="#feb123"/><path d="m259.243 293.022v48.151c0 4.509-3.649 8.158-8.158 8.158h-8.231v-56.308h16.389z" fill="#fc9f0b"/><path d="m270.876 267.177v56.135c0 4.052-3.283 7.335-7.335 7.335h-41.731c-4.051 0-7.335-3.283-7.335-7.335v-56.135c0-15.575 12.63-28.195 28.195-28.195h.183c7.719.046 14.688 3.192 19.763 8.258 5.105 5.103 8.26 12.154 8.26 19.937z" fill="#00b9ff"/><path d="m270.876 267.177v56.135c0 4.052-3.283 7.335-7.335 7.335h-20.687v-91.665c7.719.046 14.688 3.192 19.763 8.258 5.104 5.103 8.259 12.154 8.259 19.937z" fill="#0092ff"/><path d="m256.17 265.521c0 7.362-5.954 13.334-13.316 13.352h-.037c-7.371 0-13.352-5.981-13.352-13.352 0-7.38 5.981-13.361 13.352-13.361h.037c7.363.018 13.316 5.99 13.316 13.361z" fill="#3c3b40"/><path d="m256.17 265.521c0 7.362-5.954 13.334-13.316 13.352v-26.713c7.363.018 13.316 5.99 13.316 13.361z" fill="#313133"/></g></g><g><g><path d="m127.703 127.271h1.394c6.175 0 11.182-5.006 11.182-11.182v-1.394h7.971v1.394c0 6.176 5.006 11.182 11.182 11.182h1.394v7.971h-1.394c-6.176 0-11.182 5.006-11.182 11.182v1.394h-7.971v-1.394c0-6.176-5.006-11.182-11.182-11.182h-1.394z" fill="#fff"/></g></g><g><g><path d="m249.421 55.969h1.394c6.176 0 11.182-5.006 11.182-11.182v-1.394h7.971v1.394c0 6.176 5.006 11.182 11.182 11.182h1.394v7.971h-1.394c-6.176 0-11.182 5.006-11.182 11.182v1.394h-7.971v-1.394c0-6.176-5.006-11.182-11.182-11.182h-1.394z" fill="#fff"/></g></g><g><g><path d="m364.747 337.883h1.394c6.176 0 11.182-5.006 11.182-11.182v-1.394h7.971v1.394c0 6.176 5.006 11.182 11.182 11.182h1.394v7.971h-1.394c-6.176 0-11.182 5.006-11.182 11.182v1.394h-7.971v-1.394c0-6.176-5.006-11.182-11.182-11.182h-1.394z" fill="#fff"/></g></g><g><g><path d="m103.518 392.502h1.394c6.175 0 11.182-5.006 11.182-11.182v-1.394h7.971v1.394c0 6.176 5.006 11.182 11.182 11.182h1.394v7.971h-1.394c-6.176 0-11.182 5.006-11.182 11.182v1.394h-7.971v-1.394c0-6.176-5.006-11.182-11.182-11.182h-1.394z" fill="#fff"/></g></g></g></g></svg>